<mxfile host="app.diagrams.net" modified="2022-06-17T02:14:40.342Z" agent="5.0 (Macintosh; Intel Mac OS X 10_15_7) AppleWebKit/537.36 (KHTML, like Gecko) Chrome/102.0.0.0 Safari/537.36" etag="c1vfxLq7bJ1sl8-7shzs" version="20.0.1" type="github">
  <diagram id="NNZJrir4YYSeP6VaG6wg" name="Overview">
    <mxGraphModel dx="946" dy="614" grid="1" gridSize="10" guides="1" tooltips="1" connect="1" arrows="1" fold="1" page="1" pageScale="1" pageWidth="827" pageHeight="1169" math="0" shadow="0">
      <root>
        <mxCell id="0" />
        <mxCell id="1" parent="0" />
        <mxCell id="Gac-dJqSlZ9fU-KO13v7-5" value="Search" style="whiteSpace=wrap;html=1;aspect=fixed;" vertex="1" parent="1">
          <mxGeometry x="130" y="230" width="80" height="80" as="geometry" />
        </mxCell>
        <mxCell id="Gac-dJqSlZ9fU-KO13v7-6" value="Inventory" style="whiteSpace=wrap;html=1;aspect=fixed;" vertex="1" parent="1">
          <mxGeometry x="670" y="230" width="80" height="80" as="geometry" />
        </mxCell>
        <mxCell id="Gac-dJqSlZ9fU-KO13v7-7" value="Cart" style="whiteSpace=wrap;html=1;aspect=fixed;" vertex="1" parent="1">
          <mxGeometry x="130" y="430" width="80" height="80" as="geometry" />
        </mxCell>
        <mxCell id="Gac-dJqSlZ9fU-KO13v7-8" value="Order" style="whiteSpace=wrap;html=1;aspect=fixed;" vertex="1" parent="1">
          <mxGeometry x="275" y="430" width="80" height="80" as="geometry" />
        </mxCell>
        <mxCell id="Gac-dJqSlZ9fU-KO13v7-9" value="Payment" style="whiteSpace=wrap;html=1;aspect=fixed;" vertex="1" parent="1">
          <mxGeometry x="530" y="430" width="80" height="80" as="geometry" />
        </mxCell>
        <mxCell id="Gac-dJqSlZ9fU-KO13v7-10" value="Shipment" style="whiteSpace=wrap;html=1;aspect=fixed;" vertex="1" parent="1">
          <mxGeometry x="670" y="430" width="80" height="80" as="geometry" />
        </mxCell>
        <mxCell id="Gac-dJqSlZ9fU-KO13v7-11" value="Notification" style="whiteSpace=wrap;html=1;aspect=fixed;" vertex="1" parent="1">
          <mxGeometry x="530" y="230" width="80" height="80" as="geometry" />
        </mxCell>
        <mxCell id="Gac-dJqSlZ9fU-KO13v7-12" value="User" style="whiteSpace=wrap;html=1;aspect=fixed;" vertex="1" parent="1">
          <mxGeometry x="270" y="230" width="80" height="80" as="geometry" />
        </mxCell>
        <mxCell id="Gac-dJqSlZ9fU-KO13v7-13" value="MongoDB" style="shape=cylinder3;whiteSpace=wrap;html=1;boundedLbl=1;backgroundOutline=1;size=15;" vertex="1" parent="1">
          <mxGeometry x="675" y="150" width="70" height="55" as="geometry" />
        </mxCell>
        <mxCell id="Gac-dJqSlZ9fU-KO13v7-15" value="Kafka" style="rounded=0;whiteSpace=wrap;html=1;" vertex="1" parent="1">
          <mxGeometry x="125" y="350" width="685" height="50" as="geometry" />
        </mxCell>
        <mxCell id="Gac-dJqSlZ9fU-KO13v7-19" value="MariaDB" style="shape=cylinder3;whiteSpace=wrap;html=1;boundedLbl=1;backgroundOutline=1;size=15;" vertex="1" parent="1">
          <mxGeometry x="280" y="140" width="70" height="55" as="geometry" />
        </mxCell>
        <mxCell id="Gac-dJqSlZ9fU-KO13v7-20" value="Elastic" style="shape=cylinder3;whiteSpace=wrap;html=1;boundedLbl=1;backgroundOutline=1;size=15;" vertex="1" parent="1">
          <mxGeometry x="130" y="140" width="70" height="55" as="geometry" />
        </mxCell>
        <mxCell id="Gac-dJqSlZ9fU-KO13v7-22" value="Redis" style="shape=cylinder3;whiteSpace=wrap;html=1;boundedLbl=1;backgroundOutline=1;size=15;" vertex="1" parent="1">
          <mxGeometry x="675" y="540" width="70" height="55" as="geometry" />
        </mxCell>
        <mxCell id="Gac-dJqSlZ9fU-KO13v7-23" value="MariaDB" style="shape=cylinder3;whiteSpace=wrap;html=1;boundedLbl=1;backgroundOutline=1;size=15;" vertex="1" parent="1">
          <mxGeometry x="275" y="540" width="70" height="55" as="geometry" />
        </mxCell>
        <mxCell id="Gac-dJqSlZ9fU-KO13v7-24" value="MariaDB" style="shape=cylinder3;whiteSpace=wrap;html=1;boundedLbl=1;backgroundOutline=1;size=15;" vertex="1" parent="1">
          <mxGeometry x="405" y="540" width="70" height="55" as="geometry" />
        </mxCell>
        <mxCell id="Gac-dJqSlZ9fU-KO13v7-25" value="&lt;font style=&quot;font-size: 10px;&quot;&gt;Recommendation&lt;/font&gt;" style="whiteSpace=wrap;html=1;aspect=fixed;" vertex="1" parent="1">
          <mxGeometry x="400" y="230" width="80" height="80" as="geometry" />
        </mxCell>
        <mxCell id="Gac-dJqSlZ9fU-KO13v7-26" value="Pricing" style="whiteSpace=wrap;html=1;aspect=fixed;" vertex="1" parent="1">
          <mxGeometry x="400" y="430" width="80" height="80" as="geometry" />
        </mxCell>
        <mxCell id="Gac-dJqSlZ9fU-KO13v7-27" value="MariaDB" style="shape=cylinder3;whiteSpace=wrap;html=1;boundedLbl=1;backgroundOutline=1;size=15;" vertex="1" parent="1">
          <mxGeometry x="130" y="540" width="70" height="55" as="geometry" />
        </mxCell>
      </root>
    </mxGraphModel>
  </diagram>
</mxfile>
